#!OML:ASF Y:\EmotionMaleHayes\Project 1\Capture day 1\Session 1\Male1.ASF
:FULLY-SPECIFIED
:DEGREES
343
root -9.56507 17.1068 -16.1015 245.876 107.438 245.239
lowerback 13.1376 1.62071 -14.1036
upperback 5.35752 0.715156 -4.60735
thorax -1.67312 0.41983 2.90575
lowerneck -23.8593 1.8704 5.47255
upperneck 22.1242 0.400412 1.11639
head 11.1508 0.84525 -0.417729
rclavicle -2.05618e-014 -5.21313e-014
rhumerus -36.0975 12.8012 -90.3361
rradius 35.1877
rwrist 2.38644
rhand -16.1991 -33.2607
rfingers 7.12502
rthumb 10.0081 -63.0027
lclavicle -2.05618e-014 -5.21313e-014
lhumerus -26.9026 -6.94466 81.7858
lradius 40.3871
lwrist 2.82044
lhand -26.013 -26.901
lfingers 7.12502
lthumb 0.533165 3.07812
rfemur -27.8387 -0.992127 10.3524
rtibia 51.2614
rfoot -13.7791 0.945825
rtoes 4.20449
lfemur 3.66755 -0.333305 -30.6835
ltibia 7.37779
lfoot -12.8848 7.39592
ltoes -24.7025
344
root -9.32396 17.1001 -16.1179 246.678 107.65 246.204
lowerback 13.4011 1.45139 -14.3637
upperback 5.05534 0.361716 -4.52724
thorax -2.08808 0.271918 3.1789
lowerneck -23.8721 1.98859 5.51071
upperneck 22.7257 0.564119 1.05823
head 11.3844 0.932331 -0.41567
rclavicle 1.24489e-014 7.27552e-014
rhumerus -38.1885 12.2879 -90.2729
rradius 34.9261
rwrist 1.95996
rhand -15.9969 -33.3387
rfingers 7.12502
rthumb 10.2031 -63.0713
lclavicle 1.24489e-014 7.27552e-014
lhumerus -25.4545 -8.20355 81.7315
lradius 41.5272
lwrist 3.30685
lhand -26.2136 -27.4108
lfingers 7.12502
lthumb 0.339441 2.56864
rfemur -28.7981 -1.526 10.2393
rtibia 48.313
rfoot -14.1525 0.285894
rtoes 4.03704
lfemur 5.12388 -0.101234 -31.0655
ltibia 6.38513
lfoot -13.3079 6.88968
ltoes -23.6087
345
root -9.07669 17.0821 -16.1387 246.037 107.869 245.645
lowerback 13.1208 1.35661 -14.5756
upperback 4.95657 0.240968 -4.32449
thorax -2.02218 0.20116 3.53104
lowerneck -23.8062 2.13384 5.62579
upperneck 23.035 0.801317 0.795425
head 11.4959 1.02195 -0.491695
rclavicle 1.81888e-014 2.54444e-014
rhumerus -39.9531 12.2142 -90.0588
rradius 34.7127
rwrist 1.31227
rhand -15.4357 -33.015
rfingers 7.12502
rthumb 10.7445 -62.7202
lclavicle 1.81888e-014 2.54444e-014
lhumerus -23.7913 -9.31465 81.6215
lradius 42.8835
lwrist 3.47783
lhand -26.1498 -27.1197
lfingers 7.12502
lthumb 0.401054 2.85964
rfemur -29.5344 -1.78903 10.3646
rtibia 44.9251
rfoot -14.4019 -0.19895
rtoes 3.52368
lfemur 6.53844 0.657432 -31.1939
ltibia 5.47595
lfoot -13.5201 6.66496
ltoes -25.5326
346
root -8.83081 17.0526 -16.16 245.701 108.22 245.336
lowerback 12.9351 1.29056 -14.9049
upperback 4.73208 0.108286 -4.17824
thorax -2.13832 0.140704 3.88586
lowerneck -23.6384 2.23044 5.70614
upperneck 23.27 0.975983 0.599121
head 11.5592 1.08762 -0.548925
rclavicle 3.32964e-015 -2.8625e-014
rhumerus -41.992 12.2474 -89.9394
rradius 34.8848
rwrist 0.739253
rhand -14.3905 -33.0425
rfingers 7.12502
rthumb 11.7525 -62.6928
lclavicle 3.32964e-015 -2.8625e-014
lhumerus -22.275 -10.4182 81.4175
lradius 44.3069
lwrist 3.68431
lhand -26.0796 -27.0172
lfingers 7.12502
lthumb 0.468854 2.96201
rfemur -30.1106 -2.16926 10.3054
rtibia 41.166
rfoot -14.4025 -0.500284
rtoes 3.9718
lfemur 7.83233 1.63458 -31.431
ltibia 4.71013
lfoot -13.7702 6.38722
ltoes -28.6149
347
root -8.5761 17.0153 -16.1862 246.19 108.598 245.953
lowerback 12.4765 1.04383 -15.2124
upperback 4.78869 -0.154947 -4.13508
thorax -1.77259 -0.0179512 4.13876
lowerneck -23.6244 2.42113 5.67041
upperneck 23.2816 1.24482 0.643456
head 11.568 1.21034 -0.481743
rclavicle -5.36719e-015 -4.17448e-014
rhumerus -43.7961 12.8733 -90.1472
rradius 35.2725
rwrist -0.492214
rhand -13.8413 -33.3239
rfingers 7.12502
rthumb 12.2822 -62.9432
lclavicle -5.36719e-015 -4.17448e-014
lhumerus -20.2304 -11.2178 80.9348
lradius 45.5136
lwrist 3.98939
lhand -25.6681 -26.9479
lfingers 7.12502
lthumb 0.866267 3.03011
rfemur -30.4264 -2.91377 10.031
rtibia 37.3811
rfoot -14.1661 -0.726624
rtoes 5.71647
lfemur 9.29447 2.09642 -31.9651
ltibia 3.84718
lfoot -14.1869 6.08498
ltoes -29.2663
348
root -8.30979 16.9688 -16.215 246.691 108.763 246.605
lowerback 12.0458 0.780737 -15.3632
upperback 4.82188 -0.432858 -3.95942
thorax -1.44471 -0.185398 4.44539
lowerneck -23.5557 2.60822 5.64158
upperneck 23.3125 1.54267 0.571892
head 11.5746 1.33144 -0.454365
rclavicle 3.97569e-015 -3.26007e-014
rhumerus -45.7954 13.7793 -90.4056
rradius 35.7484
rwrist -2.11858
rhand -13.5847 -33.5646
rfingers 7.12502
rthumb 12.5295 -63.169
lclavicle 3.97569e-015 -3.26007e-014
lhumerus -18.2217 -11.8534 80.5584
lradius 46.6189
lwrist 3.89482
lhand -25.2227 -26.9333
lfingers 7.12502
lthumb 1.29647 3.04251
rfemur -30.4993 -3.62989 9.88021
rtibia 33.4215
rfoot -13.5739 -0.943122
rtoes 10.7696
lfemur 10.8325 2.47071 -32.284
ltibia 3.04853
lfoot -14.5018 5.60847
ltoes -27.9094
349
root -8.04217 16.9098 -16.2384 247.551 108.911 247.556
lowerback 11.5563 0.505247 -15.5844
upperback 4.82848 -0.726384 -3.77264
thorax -1.10391 -0.36267 4.79854
lowerneck -23.5057 2.74818 5.67769
upperneck 23.3207 1.77581 0.401552
head 11.576 1.41551 -0.485206
rclavicle 1.68967e-015 5.32743e-014
rhumerus -47.883 14.6471 -90.6802
rradius 36.2639
rwrist -3.38134
rhand -13.2285 -33.4235
rfingers 7.12502
rthumb 12.873 -63.0065
lclavicle 1.68967e-015 5.32743e-014
lhumerus -16.2397 -12.5323 80.1084
lradius 47.74
lwrist 3.61777
lhand -24.9096 -26.9277
lfingers 7.12502
lthumb 1.59889 3.04605
rfemur -30.3091 -4.3862 9.67022
rtibia 29.2214
rfoot -12.4171 -1.39819
rtoes 16.609
lfemur 12.1972 3.08867 -32.469
ltibia 2.51411
lfoot -14.8469 4.76102
ltoes -26.0616
350
root -7.77387 16.8439 -16.2625 248.969 109.319 249.083
lowerback 11.2242 0.278687 -16.0026
upperback 4.737 -1.01512 -3.72825
thorax -0.946874 -0.519125 5.10272
lowerneck -23.5484 2.79783 5.73741
upperneck 23.4228 1.84822 0.299117
head 11.6268 1.44158 -0.520017
rclavicle 1.09332e-014 6.16232e-014
rhumerus -50.1647 15.2521 -91.0301
rradius 36.8203
rwrist -4.53519
rhand -12.9142 -33.1511
rfingers 7.12502
rthumb 13.1759 -62.7147
lclavicle 1.09332e-014 6.16232e-014
lhumerus -14.2996 -13.496 79.5383
lradius 48.825
lwrist 3.54661
lhand -24.3171 -27.2126
lfingers 7.12502
lthumb 2.1711 2.75611
rfemur -30.165 -5.77121 9.24716
rtibia 25.341
rfoot -10.6684 -2.18328
rtoes 18.3038
lfemur 13.4835 3.64464 -33.0183
ltibia 2.09926
lfoot -15.361 3.98233
ltoes -25.9325
351
root -7.50296 16.7717 -16.2887 250.144 109.76 250.353
lowerback 11.0324 0.132103 -16.2837
upperback 4.50922 -1.23433 -3.73315
thorax -1.03367 -0.616857 5.27315
lowerneck -23.4413 2.7811 5.75811
upperneck 23.563 1.82781 0.299625
head 11.66 1.43878 -0.526841
rclavicle -2.89232e-014 -1.90833e-014
rhumerus -52.7322 15.5664 -91.4122
rradius 37.5644
rwrist -5.59705
rhand -12.5886 -33.0064
rfingers 7.12502
rthumb 13.4898 -62.5495
lclavicle -2.89232e-014 -1.90833e-014
lhumerus -12.5418 -14.5927 78.9876
lradius 49.9164
lwrist 3.3133
lhand -23.7325 -27.1275
lfingers 7.12502
lthumb 2.73572 2.83473
rfemur -30.2243 -7.50799 9.00427
rtibia 22.2117
rfoot -8.69251 -2.65444
rtoes 20.5452
lfemur 14.7155 4.03818 -33.6349
ltibia 1.81098
lfoot -15.9798 3.51205
ltoes -27.7519
352
root -7.2304 16.6909 -16.3111 250.801 109.925 251.092
lowerback 10.7836 -0.0238028 -16.2656
upperback 4.32641 -1.42204 -3.63429
thorax -1.05592 -0.706464 5.38726
lowerneck -23.3699 2.78573 5.65897
upperneck 23.7033 1.86524 0.345906
head 11.6993 1.45656 -0.486887
rclavicle 5.1684e-015 9.02482e-014
rhumerus -55.2414 15.9868 -91.8741
rradius 38.3355
rwrist -6.52687
rhand -12.404 -32.8652
rfingers 7.12502
rthumb 13.6677 -62.3964
lclavicle 5.1684e-015 9.02482e-014
lhumerus -10.7058 -15.5234 78.4065
lradius 50.938
lwrist 2.83813
lhand -23.8371 -26.4497
lfingers 7.12502
lthumb 2.63473 3.51377
rfemur -30.4744 -9.17036 9.24958
rtibia 19.8042
rfoot -7.50196 -3.70799
rtoes 21.4079
lfemur 15.8749 4.08702 -33.9609
ltibia 1.69199
lfoot -16.6819 3.30451
ltoes -29.2406
353
root -6.95979 16.6054 -16.3321 251.711 110.05 252.052
lowerback 10.3803 -0.243793 -16.3015
upperback 4.25591 -1.64985 -3.48318
thorax -0.855953 -0.837675 5.5839
lowerneck -23.4927 2.80078 5.51071
upperneck 23.8881 1.94685 0.290774
head 11.7939 1.47518 -0.467131
rclavicle 3.24019e-014 6.67916e-014
rhumerus -57.4645 16.4715 -92.3148
rradius 38.9619
rwrist -7.67104
rhand -12.5422 -32.8347
rfingers 7.12502
rthumb 13.5344 -62.3749
lclavicle 3.24019e-014 6.67916e-014
lhumerus -8.58283 -16.387 77.7276
lradius 51.7873
lwrist 2.66422
lhand -24.7811 -26.5171
lfingers 7.12502
lthumb 1.72303 3.45568
rfemur -30.9256 -11.3007 9.77139
rtibia 17.8531
rfoot -5.7716 -4.52706
rtoes 21.6844
lfemur 16.8199 3.85062 -34.3334
ltibia 1.89405
lfoot -17.4879 3.13786
ltoes -30.0038
354
root -6.69286 16.5167 -16.3519 253.158 110.277 253.514
lowerback 9.83129 -0.536439 -16.5163
upperback 4.2526 -1.94706 -3.32671
thorax -0.474367 -1.0207 5.88028
lowerneck -23.509 2.81337 5.32277
upperneck 23.9274 2.07364 0.141797
head 11.8132 1.49378 -0.470399
rclavicle -2.10712e-014 -8.82604e-014
rhumerus -59.3527 16.9743 -92.5906
rradius 39.316
rwrist -8.74572
rhand -12.4341 -32.6757
rfingers 7.12502
rthumb 13.6387 -62.2089
lclavicle -2.10712e-014 -8.82604e-014
lhumerus -6.49906 -17.154 77.01
lradius 52.6295
lwrist 2.58323
lhand -24.9872 -26.7492
lfingers 7.12502
lthumb 1.52392 3.22506
rfemur -31.4977 -13.4291 10.001
rtibia 16.8903
rfoot -5.28403 -5.66502
rtoes 21.5797
lfemur 17.5283 3.51221 -34.8704
ltibia 2.52408
lfoot -18.3063 2.91435
ltoes -30.3689
355
root -6.42352 16.4276 -16.3703 254.737 110.776 255.199
lowerback 9.2101 -0.801477 -16.9976
upperback 4.35972 -2.19013 -3.22648
thorax 0.0749938 -1.19559 6.24476
lowerneck -23.5194 2.76981 4.97705
upperneck 23.8199 2.14742 0.0999682
head 11.7695 1.48527 -0.417599
rclavicle -6.16232e-014 -8.26944e-014
rhumerus -61.0553 17.5493 -92.8417
rradius 39.603
rwrist -9.50133
rhand -11.919 -32.3483
rfingers 7.12502
rthumb 14.135 -61.8475
lclavicle -6.16232e-014 -8.26944e-014
lhumerus -4.4305 -17.6828 76.3872
lradius 53.4345
lwrist 2.20895
lhand -25.396 -26.9387
lfingers 7.12502
lthumb 1.1291 3.03808
rfemur -32.1533 -15.3484 9.8133
rtibia 16.5957
rfoot -4.78393 -6.64625
rtoes 23.0433
lfemur 18.1889 3.12565 -35.7505
ltibia 3.4168
lfoot -19.1048 2.71486
ltoes -29.9562
